# MagicaVoxel @ Ephtracy

# material
mtllib mario 2.0-01.mtl
usemtl palette

# normals
vn -1 0 0
vn 1 0 0
vn 0 0 1
vn 0 0 -1
vn 0 -1 0
vn 0 1 0

# texcoords
vt 0.314453 0.5
vt 0.634766 0.5
vt 0.892578 0.5
vt 0.970703 0.5
vt 0.974609 0.5
vt 0.978516 0.5
vt 0.994141 0.5

# verts
v -6 4 2
v -6 4 -2
v -6 7 2
v -6 7 -2
v -6 8 2
v -6 8 -2
v -6 12 2
v -6 12 -2
v -6 13 2
v -6 13 -2
v -5 0 2
v -5 0 -2
v -5 1 2
v -5 1 -2
v -5 8 2
v -5 8 -2
v -5 10 2
v -5 10 -2
v -5 11 2
v -5 11 -2
v -5 12 2
v -5 12 -2
v -5 13 2
v -5 13 -2
v -5 14 2
v -5 14 -2
v -5 15 2
v -5 15 -2
v -5 16 2
v -5 16 -2
v -4 1 2
v -4 1 -2
v -4 2 2
v -4 2 -2
v -4 4 2
v -4 4 -2
v -4 10 2
v -4 10 -2
v -4 11 2
v -4 11 -2
v -3 14 2
v -3 14 -2
v -3 15 2
v -3 15 -2
v -2 16 2
v -2 16 -2
v -2 17 2
v -2 17 -2
v 0 0 2
v 0 0 -2
v 0 1 2
v 0 1 -2
v 1 1 2
v 1 1 -2
v 1 2 2
v 1 2 -2
v 1 3 2
v 1 3 -2
v -1 0 2
v -1 0 -2
v -1 2 2
v -1 2 -2
v -1 3 2
v -1 3 -2
v 3 10 2
v 3 10 -2
v 3 11 2
v 3 11 -2
v 3 16 2
v 3 16 -2
v 3 17 2
v 3 17 -2
v 4 0 2
v 4 0 -2
v 4 2 2
v 4 2 -2
v 4 4 2
v 4 4 -2
v 4 9 2
v 4 9 -2
v 4 10 2
v 4 10 -2
v 4 14 2
v 4 14 -2
v 4 15 2
v 4 15 -2
v 4 16 2
v 4 16 -2
v 5 8 2
v 5 8 -2
v 5 9 2
v 5 9 -2
v 5 11 2
v 5 11 -2
v 5 14 2
v 5 14 -2
v 6 4 2
v 6 4 -2
v 6 7 2
v 6 7 -2
v 6 8 2
v 6 8 -2
v -6 4 2
v -6 7 2
v -6 8 2
v -6 12 2
v -6 13 2
v -5 0 2
v -5 1 2
v -5 8 2
v -5 10 2
v -5 11 2
v -5 12 2
v -5 13 2
v -5 14 2
v -5 15 2
v -5 16 2
v -4 1 2
v -4 2 2
v -4 4 2
v -4 5 2
v -4 6 2
v -4 7 2
v -4 10 2
v -4 11 2
v -3 5 2
v -3 6 2
v -3 7 2
v -3 12 2
v -3 13 2
v -3 14 2
v -3 15 2
v -2 5 2
v -2 6 2
v -2 7 2
v -2 9 2
v -2 12 2
v -2 13 2
v -2 15 2
v -2 16 2
v -2 17 2
v -1 0 2
v -1 2 2
v -1 3 2
v -1 5 2
v -1 6 2
v -1 7 2
v -1 9 2
v -1 11 2
v -1 12 2
v -1 13 2
v -1 15 2
v 0 0 2
v 0 1 2
v 0 5 2
v 0 6 2
v 1 1 2
v 1 2 2
v 1 3 2
v 1 5 2
v 1 6 2
v 1 7 2
v 1 10 2
v 1 12 2
v 1 13 2
v 1 14 2
v 1 15 2
v 2 4 2
v 2 10 2
v 2 13 2
v 2 14 2
v 3 4 2
v 3 5 2
v 3 7 2
v 3 10 2
v 3 11 2
v 3 12 2
v 3 14 2
v 3 16 2
v 3 17 2
v 4 0 2
v 4 2 2
v 4 4 2
v 4 5 2
v 4 9 2
v 4 10 2
v 4 12 2
v 4 14 2
v 4 15 2
v 4 16 2
v 5 8 2
v 5 9 2
v 5 11 2
v 5 14 2
v 6 4 2
v 6 7 2
v 6 8 2
v -6 4 -2
v -6 7 -2
v -6 8 -2
v -6 12 -2
v -6 13 -2
v -5 0 -2
v -5 1 -2
v -5 8 -2
v -5 10 -2
v -5 11 -2
v -5 12 -2
v -5 13 -2
v -5 14 -2
v -5 15 -2
v -5 16 -2
v -4 1 -2
v -4 2 -2
v -4 4 -2
v -4 5 -2
v -4 6 -2
v -4 7 -2
v -4 10 -2
v -4 11 -2
v -3 5 -2
v -3 6 -2
v -3 7 -2
v -3 12 -2
v -3 13 -2
v -3 14 -2
v -3 15 -2
v -2 5 -2
v -2 6 -2
v -2 7 -2
v -2 9 -2
v -2 12 -2
v -2 13 -2
v -2 15 -2
v -2 16 -2
v -2 17 -2
v -1 0 -2
v -1 2 -2
v -1 3 -2
v -1 5 -2
v -1 6 -2
v -1 7 -2
v -1 9 -2
v -1 11 -2
v -1 12 -2
v -1 13 -2
v -1 15 -2
v 0 0 -2
v 0 1 -2
v 0 5 -2
v 0 6 -2
v 1 1 -2
v 1 2 -2
v 1 3 -2
v 1 5 -2
v 1 6 -2
v 1 7 -2
v 1 10 -2
v 1 12 -2
v 1 13 -2
v 1 14 -2
v 1 15 -2
v 2 4 -2
v 2 10 -2
v 2 13 -2
v 2 14 -2
v 3 4 -2
v 3 5 -2
v 3 7 -2
v 3 10 -2
v 3 11 -2
v 3 12 -2
v 3 14 -2
v 3 16 -2
v 3 17 -2
v 4 0 -2
v 4 2 -2
v 4 4 -2
v 4 5 -2
v 4 9 -2
v 4 10 -2
v 4 12 -2
v 4 14 -2
v 4 15 -2
v 4 16 -2
v 5 8 -2
v 5 9 -2
v 5 11 -2
v 5 14 -2
v 6 4 -2
v 6 7 -2
v 6 8 -2
v -5 0 2
v -1 0 2
v 0 0 2
v 4 0 2
v -4 0 1
v -2 0 1
v 1 0 1
v 3 0 1
v -4 0 -1
v -2 0 -1
v 1 0 -1
v 3 0 -1
v -5 0 -2
v -1 0 -2
v 0 0 -2
v 4 0 -2
v -1 3 2
v 1 3 2
v -1 3 -2
v 1 3 -2
v -6 4 2
v -4 4 2
v 4 4 2
v 6 4 2
v -6 4 -2
v -4 4 -2
v 4 4 -2
v 6 4 -2
v -5 11 2
v -4 11 2
v 3 11 2
v 5 11 2
v -5 11 -2
v -4 11 -2
v 3 11 -2
v 5 11 -2
v -6 12 2
v -5 12 2
v -6 12 -2
v -5 12 -2
v -5 15 2
v -3 15 2
v -5 15 -2
v -3 15 -2
v -5 1 2
v -4 1 2
v 0 1 2
v 1 1 2
v -5 1 -2
v -4 1 -2
v 0 1 -2
v 1 1 -2
v -6 8 2
v -5 8 2
v 5 8 2
v 6 8 2
v -6 8 -2
v -5 8 -2
v 5 8 -2
v 6 8 -2
v 4 9 2
v 5 9 2
v 4 9 -2
v 5 9 -2
v -5 10 2
v -4 10 2
v 3 10 2
v 4 10 2
v -5 10 -2
v -4 10 -2
v 3 10 -2
v 4 10 -2
v -6 13 2
v -5 13 2
v -6 13 -2
v -5 13 -2
v -5 14 2
v -3 14 2
v 4 14 2
v 5 14 2
v -5 14 -2
v -3 14 -2
v 4 14 -2
v 5 14 -2
v -5 16 2
v -2 16 2
v 3 16 2
v 4 16 2
v -5 16 -2
v -2 16 -2
v 3 16 -2
v 4 16 -2
v -2 17 2
v 3 17 2
v -2 17 -2
v 3 17 -2

# faces
f 3/2/1 2/2/1 1/2/1
f 4/2/1 2/2/1 3/2/1
f 5/1/1 4/1/1 3/1/1
f 6/1/1 4/1/1 5/1/1
f 9/2/1 8/2/1 7/2/1
f 10/2/1 8/2/1 9/2/1
f 13/1/1 12/1/1 11/1/1
f 14/1/1 12/1/1 13/1/1
f 17/1/1 16/1/1 15/1/1
f 18/1/1 16/1/1 17/1/1
f 21/7/1 20/7/1 19/7/1
f 22/7/1 20/7/1 21/7/1
f 25/2/1 24/2/1 23/2/1
f 26/2/1 24/2/1 25/2/1
f 29/3/1 28/3/1 27/3/1
f 30/3/1 28/3/1 29/3/1
f 33/1/1 32/1/1 31/1/1
f 34/1/1 32/1/1 33/1/1
f 35/3/1 34/3/1 33/3/1
f 36/3/1 34/3/1 35/3/1
f 39/2/1 38/2/1 37/2/1
f 40/2/1 38/2/1 39/2/1
f 43/2/1 42/2/1 41/2/1
f 44/2/1 42/2/1 43/2/1
f 47/3/1 46/3/1 45/3/1
f 48/3/1 46/3/1 47/3/1
f 51/1/1 50/1/1 49/1/1
f 52/1/1 50/1/1 51/1/1
f 55/1/1 54/1/1 53/1/1
f 56/1/1 54/1/1 55/1/1
f 57/3/1 56/3/1 55/3/1
f 58/3/1 56/3/1 57/3/1
f 59/1/2 60/1/2 61/1/2
f 61/1/2 60/1/2 62/1/2
f 61/3/2 62/3/2 63/3/2
f 63/3/2 62/3/2 64/3/2
f 65/2/2 66/2/2 67/2/2
f 67/2/2 66/2/2 68/2/2
f 69/3/2 70/3/2 71/3/2
f 71/3/2 70/3/2 72/3/2
f 73/1/2 74/1/2 75/1/2
f 75/1/2 74/1/2 76/1/2
f 75/3/2 76/3/2 77/3/2
f 77/3/2 76/3/2 78/3/2
f 79/1/2 80/1/2 81/1/2
f 81/1/2 80/1/2 82/1/2
f 83/7/2 84/7/2 85/7/2
f 85/7/2 84/7/2 86/7/2
f 85/3/2 86/3/2 87/3/2
f 87/3/2 86/3/2 88/3/2
f 89/1/2 90/1/2 91/1/2
f 91/1/2 90/1/2 92/1/2
f 93/7/2 94/7/2 95/7/2
f 95/7/2 94/7/2 96/7/2
f 97/2/2 98/2/2 99/2/2
f 99/2/2 98/2/2 100/2/2
f 99/1/2 100/1/2 101/1/2
f 101/1/2 100/1/2 102/1/2
f 110/1/3 105/1/3 104/1/3
f 113/2/3 107/2/3 106/2/3
f 114/2/3 107/2/3 113/2/3
f 118/1/3 109/1/3 108/1/3
f 120/2/3 104/2/3 103/2/3
f 121/2/3 104/2/3 120/2/3
f 122/2/3 104/2/3 121/2/3
f 123/1/3 111/1/3 110/1/3
f 123/2/3 104/2/3 122/2/3
f 123/1/3 110/1/3 104/1/3
f 124/1/3 111/1/3 123/1/3
f 125/7/3 113/7/3 112/7/3
f 126/2/3 122/2/3 121/2/3
f 126/3/3 121/3/3 120/3/3
f 126/3/3 120/3/3 119/3/3
f 127/1/3 124/1/3 123/1/3
f 127/2/3 122/2/3 126/2/3
f 127/1/3 123/1/3 122/1/3
f 128/1/3 124/1/3 127/1/3
f 129/7/3 113/7/3 125/7/3
f 129/2/3 114/2/3 113/2/3
f 129/2/3 115/2/3 114/2/3
f 130/2/3 115/2/3 129/2/3
f 131/2/3 115/2/3 130/2/3
f 132/3/3 117/3/3 116/3/3
f 133/3/3 126/3/3 119/3/3
f 133/3/3 128/3/3 127/3/3
f 133/3/3 127/3/3 126/3/3
f 134/3/3 128/3/3 133/3/3
f 135/1/3 124/1/3 128/1/3
f 135/3/3 128/3/3 134/3/3
f 136/1/3 124/1/3 135/1/3
f 137/7/3 129/7/3 125/7/3
f 137/7/3 130/7/3 129/7/3
f 138/2/3 131/2/3 130/2/3
f 138/7/3 130/7/3 137/7/3
f 138/2/3 132/2/3 131/2/3
f 139/3/3 117/3/3 132/3/3
f 139/2/3 132/2/3 138/2/3
f 140/3/3 117/3/3 139/3/3
f 142/1/3 119/1/3 118/1/3
f 142/1/3 118/1/3 108/1/3
f 143/3/3 133/3/3 119/3/3
f 143/1/3 119/1/3 142/1/3
f 144/3/3 133/3/3 143/3/3
f 145/6/3 134/6/3 133/6/3
f 145/3/3 133/3/3 144/3/3
f 146/3/3 135/3/3 134/3/3
f 146/6/3 134/6/3 145/6/3
f 146/3/3 136/3/3 135/3/3
f 147/3/3 136/3/3 146/3/3
f 148/1/3 124/1/3 136/1/3
f 148/3/3 136/3/3 147/3/3
f 149/7/3 137/7/3 125/7/3
f 149/2/3 125/2/3 124/2/3
f 150/2/3 138/2/3 137/2/3
f 150/7/3 137/7/3 149/7/3
f 151/7/3 139/7/3 138/7/3
f 151/2/3 138/2/3 150/2/3
f 152/3/3 141/3/3 140/3/3
f 152/7/3 139/7/3 151/7/3
f 152/3/3 140/3/3 139/3/3
f 155/3/3 145/3/3 144/3/3
f 155/3/3 146/3/3 145/3/3
f 155/3/3 147/3/3 146/3/3
f 156/3/3 147/3/3 155/3/3
f 157/1/3 154/1/3 153/1/3
f 159/3/3 155/3/3 144/3/3
f 160/6/3 156/6/3 155/6/3
f 160/3/3 155/3/3 159/3/3
f 161/3/3 147/3/3 156/3/3
f 161/6/3 156/6/3 160/6/3
f 162/1/3 148/1/3 147/1/3
f 162/3/3 147/3/3 161/3/3
f 163/2/3 151/2/3 150/2/3
f 163/1/3 148/1/3 162/1/3
f 163/1/3 124/1/3 148/1/3
f 163/2/3 149/2/3 124/2/3
f 163/2/3 150/2/3 149/2/3
f 163/2/3 152/2/3 151/2/3
f 164/2/3 152/2/3 163/2/3
f 165/2/3 152/2/3 164/2/3
f 166/2/3 152/2/3 165/2/3
f 167/3/3 141/3/3 152/3/3
f 167/2/3 152/2/3 166/2/3
f 168/3/3 162/3/3 161/3/3
f 168/3/3 161/3/3 160/3/3
f 168/3/3 160/3/3 159/3/3
f 168/3/3 159/3/3 158/3/3
f 168/3/3 163/3/3 162/3/3
f 169/2/3 164/2/3 163/2/3
f 169/3/3 163/3/3 168/3/3
f 170/2/3 166/2/3 165/2/3
f 170/7/3 165/7/3 164/7/3
f 171/7/3 167/7/3 166/7/3
f 171/2/3 166/2/3 170/2/3
f 172/1/3 169/1/3 168/1/3
f 172/3/3 168/3/3 158/3/3
f 173/1/3 169/1/3 172/1/3
f 174/1/3 169/1/3 173/1/3
f 175/2/3 164/2/3 169/2/3
f 175/1/3 169/1/3 174/1/3
f 176/2/3 164/2/3 175/2/3
f 177/7/3 170/7/3 164/7/3
f 177/2/3 164/2/3 176/2/3
f 177/7/3 171/7/3 170/7/3
f 178/7/3 167/7/3 171/7/3
f 178/7/3 171/7/3 177/7/3
f 179/3/3 141/3/3 167/3/3
f 180/3/3 141/3/3 179/3/3
f 181/1/3 157/1/3 153/1/3
f 181/1/3 158/1/3 157/1/3
f 182/3/3 172/3/3 158/3/3
f 182/1/3 158/1/3 181/1/3
f 182/3/3 173/3/3 172/3/3
f 183/3/3 173/3/3 182/3/3
f 184/2/3 174/2/3 173/2/3
f 184/3/3 173/3/3 183/3/3
f 185/1/3 175/1/3 174/1/3
f 186/1/3 175/1/3 185/1/3
f 187/7/3 177/7/3 176/7/3
f 187/2/3 178/2/3 177/2/3
f 188/7/3 167/7/3 178/7/3
f 188/2/3 178/2/3 187/2/3
f 189/3/3 179/3/3 167/3/3
f 189/7/3 167/7/3 188/7/3
f 190/3/3 179/3/3 189/3/3
f 191/1/3 185/1/3 174/1/3
f 192/1/3 185/1/3 191/1/3
f 193/7/3 187/7/3 176/7/3
f 193/7/3 188/7/3 187/7/3
f 194/7/3 188/7/3 193/7/3
f 195/2/3 184/2/3 183/2/3
f 196/1/3 191/1/3 174/1/3
f 196/2/3 184/2/3 195/2/3
f 196/2/3 174/2/3 184/2/3
f 197/1/3 191/1/3 196/1/3
f 199/1/4 200/1/4 205/1/4
f 201/2/4 202/2/4 208/2/4
f 208/2/4 202/2/4 209/2/4
f 203/1/4 204/1/4 213/1/4
f 198/2/4 199/2/4 215/2/4
f 215/2/4 199/2/4 216/2/4
f 216/2/4 199/2/4 217/2/4
f 205/1/4 206/1/4 218/1/4
f 217/2/4 199/2/4 218/2/4
f 199/1/4 205/1/4 218/1/4
f 218/1/4 206/1/4 219/1/4
f 207/7/4 208/7/4 220/7/4
f 216/2/4 217/2/4 221/2/4
f 215/3/4 216/3/4 221/3/4
f 214/3/4 215/3/4 221/3/4
f 218/1/4 219/1/4 222/1/4
f 221/2/4 217/2/4 222/2/4
f 217/1/4 218/1/4 222/1/4
f 222/1/4 219/1/4 223/1/4
f 220/7/4 208/7/4 224/7/4
f 208/2/4 209/2/4 224/2/4
f 209/2/4 210/2/4 224/2/4
f 224/2/4 210/2/4 225/2/4
f 225/2/4 210/2/4 226/2/4
f 211/3/4 212/3/4 227/3/4
f 214/3/4 221/3/4 228/3/4
f 222/3/4 223/3/4 228/3/4
f 221/3/4 222/3/4 228/3/4
f 228/3/4 223/3/4 229/3/4
f 223/1/4 219/1/4 230/1/4
f 229/3/4 223/3/4 230/3/4
f 230/1/4 219/1/4 231/1/4
f 220/7/4 224/7/4 232/7/4
f 224/7/4 225/7/4 232/7/4
f 225/2/4 226/2/4 233/2/4
f 232/7/4 225/7/4 233/7/4
f 226/2/4 227/2/4 233/2/4
f 227/3/4 212/3/4 234/3/4
f 233/2/4 227/2/4 234/2/4
f 234/3/4 212/3/4 235/3/4
f 213/1/4 214/1/4 237/1/4
f 203/1/4 213/1/4 237/1/4
f 214/3/4 228/3/4 238/3/4
f 237/1/4 214/1/4 238/1/4
f 238/3/4 228/3/4 239/3/4
f 228/6/4 229/6/4 240/6/4
f 239/3/4 228/3/4 240/3/4
f 229/3/4 230/3/4 241/3/4
f 240/6/4 229/6/4 241/6/4
f 230/3/4 231/3/4 241/3/4
f 241/3/4 231/3/4 242/3/4
f 231/1/4 219/1/4 243/1/4
f 242/3/4 231/3/4 243/3/4
f 220/7/4 232/7/4 244/7/4
f 219/2/4 220/2/4 244/2/4
f 232/2/4 233/2/4 245/2/4
f 244/7/4 232/7/4 245/7/4
f 233/7/4 234/7/4 246/7/4
f 245/2/4 233/2/4 246/2/4
f 235/3/4 236/3/4 247/3/4
f 246/7/4 234/7/4 247/7/4
f 234/3/4 235/3/4 247/3/4
f 239/3/4 240/3/4 250/3/4
f 240/3/4 241/3/4 250/3/4
f 241/3/4 242/3/4 250/3/4
f 250/3/4 242/3/4 251/3/4
f 248/1/4 249/1/4 252/1/4
f 239/3/4 250/3/4 254/3/4
f 250/6/4 251/6/4 255/6/4
f 254/3/4 250/3/4 255/3/4
f 251/3/4 242/3/4 256/3/4
f 255/6/4 251/6/4 256/6/4
f 242/1/4 243/1/4 257/1/4
f 256/3/4 242/3/4 257/3/4
f 245/2/4 246/2/4 258/2/4
f 257/1/4 243/1/4 258/1/4
f 243/1/4 219/1/4 258/1/4
f 219/2/4 244/2/4 258/2/4
f 244/2/4 245/2/4 258/2/4
f 246/2/4 247/2/4 258/2/4
f 258/2/4 247/2/4 259/2/4
f 259/2/4 247/2/4 260/2/4
f 260/2/4 247/2/4 261/2/4
f 247/3/4 236/3/4 262/3/4
f 261/2/4 247/2/4 262/2/4
f 256/3/4 257/3/4 263/3/4
f 255/3/4 256/3/4 263/3/4
f 254/3/4 255/3/4 263/3/4
f 253/3/4 254/3/4 263/3/4
f 257/3/4 258/3/4 263/3/4
f 258/2/4 259/2/4 264/2/4
f 263/3/4 258/3/4 264/3/4
f 260/2/4 261/2/4 265/2/4
f 259/7/4 260/7/4 265/7/4
f 261/7/4 262/7/4 266/7/4
f 265/2/4 261/2/4 266/2/4
f 263/1/4 264/1/4 267/1/4
f 253/3/4 263/3/4 267/3/4
f 267/1/4 264/1/4 268/1/4
f 268/1/4 264/1/4 269/1/4
f 264/2/4 259/2/4 270/2/4
f 269/1/4 264/1/4 270/1/4
f 270/2/4 259/2/4 271/2/4
f 259/7/4 265/7/4 272/7/4
f 271/2/4 259/2/4 272/2/4
f 265/7/4 266/7/4 272/7/4
f 266/7/4 262/7/4 273/7/4
f 272/7/4 266/7/4 273/7/4
f 262/3/4 236/3/4 274/3/4
f 274/3/4 236/3/4 275/3/4
f 248/1/4 252/1/4 276/1/4
f 252/1/4 253/1/4 276/1/4
f 253/3/4 267/3/4 277/3/4
f 276/1/4 253/1/4 277/1/4
f 267/3/4 268/3/4 277/3/4
f 277/3/4 268/3/4 278/3/4
f 268/2/4 269/2/4 279/2/4
f 278/3/4 268/3/4 279/3/4
f 269/1/4 270/1/4 280/1/4
f 280/1/4 270/1/4 281/1/4
f 271/7/4 272/7/4 282/7/4
f 272/2/4 273/2/4 282/2/4
f 273/7/4 262/7/4 283/7/4
f 282/2/4 273/2/4 283/2/4
f 262/3/4 274/3/4 284/3/4
f 283/7/4 262/7/4 284/7/4
f 284/3/4 274/3/4 285/3/4
f 269/1/4 280/1/4 286/1/4
f 286/1/4 280/1/4 287/1/4
f 271/7/4 282/7/4 288/7/4
f 282/7/4 283/7/4 288/7/4
f 288/7/4 283/7/4 289/7/4
f 278/2/4 279/2/4 290/2/4
f 269/1/4 286/1/4 291/1/4
f 290/2/4 279/2/4 291/2/4
f 279/2/4 269/2/4 291/2/4
f 291/1/4 286/1/4 292/1/4
f 297/1/5 294/1/5 293/1/5
f 298/1/5 294/1/5 297/1/5
f 299/1/5 296/1/5 295/1/5
f 300/1/5 296/1/5 299/1/5
f 301/1/5 297/1/5 293/1/5
f 301/5/5 298/5/5 297/5/5
f 302/1/5 294/1/5 298/1/5
f 302/5/5 298/5/5 301/5/5
f 303/5/5 300/5/5 299/5/5
f 303/1/5 299/1/5 295/1/5
f 304/1/5 296/1/5 300/1/5
f 304/5/5 300/5/5 303/5/5
f 305/1/5 301/1/5 293/1/5
f 305/1/5 302/1/5 301/1/5
f 306/1/5 294/1/5 302/1/5
f 306/1/5 302/1/5 305/1/5
f 307/1/5 303/1/5 295/1/5
f 307/1/5 304/1/5 303/1/5
f 308/1/5 296/1/5 304/1/5
f 308/1/5 304/1/5 307/1/5
f 311/3/5 310/3/5 309/3/5
f 312/3/5 310/3/5 311/3/5
f 317/2/5 314/2/5 313/2/5
f 318/2/5 314/2/5 317/2/5
f 319/2/5 316/2/5 315/2/5
f 320/2/5 316/2/5 319/2/5
f 325/7/5 322/7/5 321/7/5
f 326/7/5 322/7/5 325/7/5
f 327/7/5 324/7/5 323/7/5
f 328/7/5 324/7/5 327/7/5
f 331/2/5 330/2/5 329/2/5
f 332/2/5 330/2/5 331/2/5
f 335/3/5 334/3/5 333/3/5
f 336/3/5 334/3/5 335/3/5
f 337/1/6 338/1/6 341/1/6
f 341/1/6 338/1/6 342/1/6
f 339/1/6 340/1/6 343/1/6
f 343/1/6 340/1/6 344/1/6
f 345/1/6 346/1/6 349/1/6
f 349/1/6 346/1/6 350/1/6
f 347/1/6 348/1/6 351/1/6
f 351/1/6 348/1/6 352/1/6
f 353/1/6 354/1/6 355/1/6
f 355/1/6 354/1/6 356/1/6
f 357/1/6 358/1/6 361/1/6
f 361/1/6 358/1/6 362/1/6
f 359/1/6 360/1/6 363/1/6
f 363/1/6 360/1/6 364/1/6
f 365/2/6 366/2/6 367/2/6
f 367/2/6 366/2/6 368/2/6
f 369/2/6 370/2/6 373/2/6
f 373/2/6 370/2/6 374/2/6
f 371/7/6 372/7/6 375/7/6
f 375/7/6 372/7/6 376/7/6
f 377/3/6 378/3/6 381/3/6
f 381/3/6 378/3/6 382/3/6
f 379/3/6 380/3/6 383/3/6
f 383/3/6 380/3/6 384/3/6
f 385/3/6 386/3/6 387/3/6
f 387/3/6 386/3/6 388/3/6
