# MagicaVoxel @ Ephtracy

# material
mtllib Flower1-01.mtl
usemtl palette

# normals
vn -1 0 0
vn 1 0 0
vn 0 0 1
vn 0 0 -1
vn 0 -1 0
vn 0 1 0

# texcoords
vt 0.0175781 0.5
vt 0.900391 0.5
vt 0.958984 0.5

# verts
v -9 15 2
v -9 15 -3
v -9 16 2
v -9 16 -3
v -8 15 4
v -8 15 2
v -8 15 -3
v -8 15 -5
v -8 16 4
v -8 16 2
v -8 16 -3
v -8 16 -5
v -7 15 6
v -7 15 4
v -7 15 -5
v -7 15 -7
v -7 16 6
v -7 16 4
v -7 16 -5
v -7 16 -7
v -5 15 7
v -5 15 6
v -5 15 -7
v -5 15 -8
v -5 16 7
v -5 16 6
v -5 16 -7
v -5 16 -8
v -3 0 2
v -3 0 -2
v -3 15 8
v -3 15 7
v -3 15 2
v -3 15 -2
v -3 15 -8
v -3 15 -9
v -3 16 8
v -3 16 7
v -3 16 -8
v -3 16 -9
v -1 6 6
v -1 6 2
v -1 6 -2
v -1 6 -6
v -1 7 7
v -1 7 6
v -1 7 3
v -1 7 2
v -1 7 -2
v -1 7 -3
v -1 7 -6
v -1 7 -7
v -1 8 8
v -1 8 7
v -1 8 -7
v -1 8 -8
v -1 9 9
v -1 9 8
v -1 9 -8
v -1 9 -9
v -1 10 4
v -1 10 3
v -1 10 -3
v -1 10 -4
v -1 11 5
v -1 11 4
v -1 11 -4
v -1 11 -5
v -1 12 10
v -1 12 9
v -1 12 6
v -1 12 5
v -1 12 -5
v -1 12 -6
v -1 12 -9
v -1 12 -10
v -1 13 10
v -1 13 6
v -1 13 -6
v -1 13 -10
v 0 6 6
v 0 6 2
v 0 6 -2
v 0 6 -6
v 0 7 7
v 0 7 6
v 0 7 3
v 0 7 2
v 0 7 -2
v 0 7 -3
v 0 7 -6
v 0 7 -7
v 0 8 8
v 0 8 7
v 0 8 -7
v 0 8 -8
v 0 9 9
v 0 9 8
v 0 9 -8
v 0 9 -9
v 0 10 4
v 0 10 3
v 0 10 -3
v 0 10 -4
v 0 11 5
v 0 11 4
v 0 11 -4
v 0 11 -5
v 0 12 10
v 0 12 9
v 0 12 6
v 0 12 5
v 0 12 -5
v 0 12 -6
v 0 12 -9
v 0 12 -10
v 0 13 10
v 0 13 6
v 0 13 -6
v 0 13 -10
v 2 0 2
v 2 0 -2
v 2 15 8
v 2 15 7
v 2 15 2
v 2 15 -2
v 2 15 -8
v 2 15 -9
v 2 16 8
v 2 16 7
v 2 16 -8
v 2 16 -9
v 4 15 7
v 4 15 6
v 4 15 -7
v 4 15 -8
v 4 16 7
v 4 16 6
v 4 16 -7
v 4 16 -8
v 6 15 6
v 6 15 4
v 6 15 -5
v 6 15 -7
v 6 16 6
v 6 16 4
v 6 16 -5
v 6 16 -7
v 7 15 4
v 7 15 2
v 7 15 -3
v 7 15 -5
v 7 16 4
v 7 16 2
v 7 16 -3
v 7 16 -5
v 8 15 2
v 8 15 -3
v 8 16 2
v 8 16 -3
v -1 12 10
v -1 13 10
v 0 12 10
v 0 13 10
v -1 9 9
v -1 12 9
v 0 9 9
v 0 12 9
v -3 15 8
v -3 16 8
v -1 8 8
v -1 9 8
v 0 8 8
v 0 9 8
v 2 15 8
v 2 16 8
v -5 15 7
v -5 16 7
v -3 15 7
v -3 16 7
v -1 7 7
v -1 8 7
v 0 7 7
v 0 8 7
v 2 15 7
v 2 16 7
v 4 15 7
v 4 16 7
v -7 15 6
v -7 16 6
v -5 15 6
v -5 16 6
v -1 6 6
v -1 7 6
v 0 6 6
v 0 7 6
v 4 15 6
v 4 16 6
v 6 15 6
v 6 16 6
v -8 15 4
v -8 16 4
v -7 15 4
v -7 16 4
v 6 15 4
v 6 16 4
v 7 15 4
v 7 16 4
v -9 15 2
v -9 16 2
v -8 15 2
v -8 16 2
v -3 0 2
v -3 15 2
v -1 6 2
v -1 7 2
v 0 6 2
v 0 7 2
v 2 0 2
v 2 15 2
v 7 15 2
v 7 16 2
v 8 15 2
v 8 16 2
v -1 7 -3
v -1 10 -3
v 0 7 -3
v 0 10 -3
v -1 10 -4
v -1 11 -4
v 0 10 -4
v 0 11 -4
v -1 11 -5
v -1 12 -5
v 0 11 -5
v 0 12 -5
v -1 12 -6
v -1 13 -6
v 0 12 -6
v 0 13 -6
v -1 12 6
v -1 13 6
v 0 12 6
v 0 13 6
v -1 11 5
v -1 12 5
v 0 11 5
v 0 12 5
v -1 10 4
v -1 11 4
v 0 10 4
v 0 11 4
v -1 7 3
v -1 10 3
v 0 7 3
v 0 10 3
v -3 0 -2
v -3 15 -2
v -1 6 -2
v -1 7 -2
v 0 6 -2
v 0 7 -2
v 2 0 -2
v 2 15 -2
v -9 15 -3
v -9 16 -3
v -8 15 -3
v -8 16 -3
v 7 15 -3
v 7 16 -3
v 8 15 -3
v 8 16 -3
v -8 15 -5
v -8 16 -5
v -7 15 -5
v -7 16 -5
v 6 15 -5
v 6 16 -5
v 7 15 -5
v 7 16 -5
v -1 6 -6
v -1 7 -6
v 0 6 -6
v 0 7 -6
v -7 15 -7
v -7 16 -7
v -5 15 -7
v -5 16 -7
v -1 7 -7
v -1 8 -7
v 0 7 -7
v 0 8 -7
v 4 15 -7
v 4 16 -7
v 6 15 -7
v 6 16 -7
v -5 15 -8
v -5 16 -8
v -3 15 -8
v -3 16 -8
v -1 8 -8
v -1 9 -8
v 0 8 -8
v 0 9 -8
v 2 15 -8
v 2 16 -8
v 4 15 -8
v 4 16 -8
v -3 15 -9
v -3 16 -9
v -1 9 -9
v -1 12 -9
v 0 9 -9
v 0 12 -9
v 2 15 -9
v 2 16 -9
v -1 12 -10
v -1 13 -10
v 0 12 -10
v 0 13 -10
v -3 0 2
v 2 0 2
v -3 0 -2
v 2 0 -2
v -1 6 6
v 0 6 6
v -1 6 2
v 0 6 2
v -1 6 -2
v 0 6 -2
v -1 6 -6
v 0 6 -6
v -1 7 7
v 0 7 7
v -1 7 6
v 0 7 6
v -1 7 -6
v 0 7 -6
v -1 7 -7
v 0 7 -7
v -1 8 8
v 0 8 8
v -1 8 7
v 0 8 7
v -1 8 -7
v 0 8 -7
v -1 8 -8
v 0 8 -8
v -1 9 9
v 0 9 9
v -1 9 8
v 0 9 8
v -1 9 -8
v 0 9 -8
v -1 9 -9
v 0 9 -9
v -1 12 10
v 0 12 10
v -1 12 9
v 0 12 9
v -1 12 -9
v 0 12 -9
v -1 12 -10
v 0 12 -10
v -3 15 8
v 2 15 8
v -5 15 7
v -3 15 7
v 2 15 7
v 4 15 7
v -7 15 6
v -5 15 6
v -3 15 6
v 2 15 6
v 4 15 6
v 6 15 6
v -5 15 5
v -3 15 5
v 2 15 5
v 4 15 5
v -8 15 4
v -7 15 4
v -6 15 4
v -5 15 4
v 4 15 4
v 5 15 4
v 6 15 4
v 7 15 4
v -9 15 2
v -8 15 2
v -7 15 2
v -6 15 2
v -3 15 2
v 2 15 2
v 5 15 2
v 6 15 2
v 7 15 2
v 8 15 2
v -3 15 -2
v 2 15 -2
v -9 15 -3
v -8 15 -3
v -7 15 -3
v -6 15 -3
v 5 15 -3
v 6 15 -3
v 7 15 -3
v 8 15 -3
v -8 15 -5
v -7 15 -5
v -6 15 -5
v -5 15 -5
v 4 15 -5
v 5 15 -5
v 6 15 -5
v 7 15 -5
v -5 15 -6
v -3 15 -6
v 2 15 -6
v 4 15 -6
v -7 15 -7
v -5 15 -7
v -3 15 -7
v 2 15 -7
v 4 15 -7
v 6 15 -7
v -5 15 -8
v -3 15 -8
v 2 15 -8
v 4 15 -8
v -3 15 -9
v 2 15 -9
v -1 7 3
v 0 7 3
v -1 7 2
v 0 7 2
v -1 7 -2
v 0 7 -2
v -1 7 -3
v 0 7 -3
v -1 10 4
v 0 10 4
v -1 10 3
v 0 10 3
v -1 10 -3
v 0 10 -3
v -1 10 -4
v 0 10 -4
v -1 11 5
v 0 11 5
v -1 11 4
v 0 11 4
v -1 11 -4
v 0 11 -4
v -1 11 -5
v 0 11 -5
v -1 12 6
v 0 12 6
v -1 12 5
v 0 12 5
v -1 12 -5
v 0 12 -5
v -1 12 -6
v 0 12 -6
v -1 13 10
v 0 13 10
v -1 13 6
v 0 13 6
v -1 13 -6
v 0 13 -6
v -1 13 -10
v 0 13 -10
v -3 16 8
v 2 16 8
v -5 16 7
v -3 16 7
v 2 16 7
v 4 16 7
v -7 16 6
v -5 16 6
v -3 16 6
v 2 16 6
v 4 16 6
v 6 16 6
v -5 16 5
v -3 16 5
v 2 16 5
v 4 16 5
v -8 16 4
v -7 16 4
v -6 16 4
v -5 16 4
v 4 16 4
v 5 16 4
v 6 16 4
v 7 16 4
v -9 16 2
v -8 16 2
v -7 16 2
v -6 16 2
v 5 16 2
v 6 16 2
v 7 16 2
v 8 16 2
v -9 16 -3
v -8 16 -3
v -7 16 -3
v -6 16 -3
v 5 16 -3
v 6 16 -3
v 7 16 -3
v 8 16 -3
v -8 16 -5
v -7 16 -5
v -6 16 -5
v -5 16 -5
v 4 16 -5
v 5 16 -5
v 6 16 -5
v 7 16 -5
v -5 16 -6
v -3 16 -6
v 2 16 -6
v 4 16 -6
v -7 16 -7
v -5 16 -7
v -3 16 -7
v 2 16 -7
v 4 16 -7
v 6 16 -7
v -5 16 -8
v -3 16 -8
v 2 16 -8
v 4 16 -8
v -3 16 -9
v 2 16 -9

# faces
f 3/1/1 2/1/1 1/1/1
f 4/1/1 2/1/1 3/1/1
f 9/1/1 6/1/1 5/1/1
f 10/1/1 6/1/1 9/1/1
f 11/1/1 8/1/1 7/1/1
f 12/1/1 8/1/1 11/1/1
f 17/1/1 14/1/1 13/1/1
f 18/1/1 14/1/1 17/1/1
f 19/1/1 16/1/1 15/1/1
f 20/1/1 16/1/1 19/1/1
f 25/1/1 22/1/1 21/1/1
f 26/1/1 22/1/1 25/1/1
f 27/1/1 24/1/1 23/1/1
f 28/1/1 24/1/1 27/1/1
f 33/2/1 30/2/1 29/2/1
f 34/2/1 30/2/1 33/2/1
f 37/1/1 32/1/1 31/1/1
f 38/1/1 32/1/1 37/1/1
f 39/1/1 36/1/1 35/1/1
f 40/1/1 36/1/1 39/1/1
f 46/2/1 42/2/1 41/2/1
f 47/2/1 42/2/1 46/2/1
f 48/2/1 42/2/1 47/2/1
f 49/2/1 44/2/1 43/2/1
f 50/2/1 44/2/1 49/2/1
f 51/2/1 44/2/1 50/2/1
f 54/2/1 46/2/1 45/2/1
f 54/2/1 47/2/1 46/2/1
f 55/2/1 52/2/1 51/2/1
f 55/2/1 51/2/1 50/2/1
f 58/2/1 54/2/1 53/2/1
f 59/2/1 56/2/1 55/2/1
f 61/2/1 58/2/1 57/2/1
f 61/2/1 47/2/1 54/2/1
f 61/2/1 54/2/1 58/2/1
f 62/2/1 47/2/1 61/2/1
f 63/2/1 60/2/1 59/2/1
f 63/2/1 59/2/1 55/2/1
f 63/2/1 55/2/1 50/2/1
f 64/2/1 60/2/1 63/2/1
f 65/2/1 61/2/1 57/2/1
f 66/2/1 61/2/1 65/2/1
f 67/2/1 60/2/1 64/2/1
f 68/2/1 60/2/1 67/2/1
f 70/2/1 65/2/1 57/2/1
f 71/2/1 65/2/1 70/2/1
f 72/2/1 65/2/1 71/2/1
f 73/2/1 60/2/1 68/2/1
f 74/2/1 60/2/1 73/2/1
f 75/2/1 60/2/1 74/2/1
f 77/2/1 70/2/1 69/2/1
f 77/2/1 71/2/1 70/2/1
f 78/2/1 71/2/1 77/2/1
f 79/2/1 76/2/1 75/2/1
f 79/2/1 75/2/1 74/2/1
f 80/2/1 76/2/1 79/2/1
f 81/2/2 82/2/2 86/2/2
f 86/2/2 82/2/2 87/2/2
f 87/2/2 82/2/2 88/2/2
f 83/2/2 84/2/2 89/2/2
f 89/2/2 84/2/2 90/2/2
f 90/2/2 84/2/2 91/2/2
f 85/2/2 86/2/2 94/2/2
f 86/2/2 87/2/2 94/2/2
f 91/2/2 92/2/2 95/2/2
f 90/2/2 91/2/2 95/2/2
f 93/2/2 94/2/2 98/2/2
f 95/2/2 96/2/2 99/2/2
f 97/2/2 98/2/2 101/2/2
f 94/2/2 87/2/2 101/2/2
f 98/2/2 94/2/2 101/2/2
f 101/2/2 87/2/2 102/2/2
f 99/2/2 100/2/2 103/2/2
f 95/2/2 99/2/2 103/2/2
f 90/2/2 95/2/2 103/2/2
f 103/2/2 100/2/2 104/2/2
f 97/2/2 101/2/2 105/2/2
f 105/2/2 101/2/2 106/2/2
f 104/2/2 100/2/2 107/2/2
f 107/2/2 100/2/2 108/2/2
f 97/2/2 105/2/2 110/2/2
f 110/2/2 105/2/2 111/2/2
f 111/2/2 105/2/2 112/2/2
f 108/2/2 100/2/2 113/2/2
f 113/2/2 100/2/2 114/2/2
f 114/2/2 100/2/2 115/2/2
f 109/2/2 110/2/2 117/2/2
f 110/2/2 111/2/2 117/2/2
f 117/2/2 111/2/2 118/2/2
f 115/2/2 116/2/2 119/2/2
f 114/2/2 115/2/2 119/2/2
f 119/2/2 116/2/2 120/2/2
f 121/2/2 122/2/2 125/2/2
f 125/2/2 122/2/2 126/2/2
f 123/1/2 124/1/2 129/1/2
f 129/1/2 124/1/2 130/1/2
f 127/1/2 128/1/2 131/1/2
f 131/1/2 128/1/2 132/1/2
f 133/1/2 134/1/2 137/1/2
f 137/1/2 134/1/2 138/1/2
f 135/1/2 136/1/2 139/1/2
f 139/1/2 136/1/2 140/1/2
f 141/1/2 142/1/2 145/1/2
f 145/1/2 142/1/2 146/1/2
f 143/1/2 144/1/2 147/1/2
f 147/1/2 144/1/2 148/1/2
f 149/1/2 150/1/2 153/1/2
f 153/1/2 150/1/2 154/1/2
f 151/1/2 152/1/2 155/1/2
f 155/1/2 152/1/2 156/1/2
f 157/1/2 158/1/2 159/1/2
f 159/1/2 158/1/2 160/1/2
f 163/2/3 162/2/3 161/2/3
f 164/2/3 162/2/3 163/2/3
f 167/2/3 166/2/3 165/2/3
f 168/2/3 166/2/3 167/2/3
f 173/2/3 172/2/3 171/2/3
f 174/2/3 172/2/3 173/2/3
f 175/1/3 170/1/3 169/1/3
f 176/1/3 170/1/3 175/1/3
f 179/1/3 178/1/3 177/1/3
f 180/1/3 178/1/3 179/1/3
f 183/2/3 182/2/3 181/2/3
f 184/2/3 182/2/3 183/2/3
f 187/1/3 186/1/3 185/1/3
f 188/1/3 186/1/3 187/1/3
f 191/1/3 190/1/3 189/1/3
f 192/1/3 190/1/3 191/1/3
f 195/2/3 194/2/3 193/2/3
f 196/2/3 194/2/3 195/2/3
f 199/1/3 198/1/3 197/1/3
f 200/1/3 198/1/3 199/1/3
f 203/1/3 202/1/3 201/1/3
f 204/1/3 202/1/3 203/1/3
f 207/1/3 206/1/3 205/1/3
f 208/1/3 206/1/3 207/1/3
f 211/1/3 210/1/3 209/1/3
f 212/1/3 210/1/3 211/1/3
f 215/2/3 214/2/3 213/2/3
f 216/2/3 214/2/3 215/2/3
f 217/2/3 215/2/3 213/2/3
f 218/2/3 214/2/3 216/2/3
f 219/2/3 217/2/3 213/2/3
f 219/2/3 218/2/3 217/2/3
f 220/2/3 214/2/3 218/2/3
f 220/2/3 218/2/3 219/2/3
f 223/1/3 222/1/3 221/1/3
f 224/1/3 222/1/3 223/1/3
f 227/2/3 226/2/3 225/2/3
f 228/2/3 226/2/3 227/2/3
f 231/2/3 230/2/3 229/2/3
f 232/2/3 230/2/3 231/2/3
f 235/2/3 234/2/3 233/2/3
f 236/2/3 234/2/3 235/2/3
f 239/2/3 238/2/3 237/2/3
f 240/2/3 238/2/3 239/2/3
f 241/2/4 242/2/4 243/2/4
f 243/2/4 242/2/4 244/2/4
f 245/2/4 246/2/4 247/2/4
f 247/2/4 246/2/4 248/2/4
f 249/2/4 250/2/4 251/2/4
f 251/2/4 250/2/4 252/2/4
f 253/2/4 254/2/4 255/2/4
f 255/2/4 254/2/4 256/2/4
f 257/2/4 258/2/4 259/2/4
f 259/2/4 258/2/4 260/2/4
f 257/2/4 259/2/4 261/2/4
f 260/2/4 258/2/4 262/2/4
f 257/2/4 261/2/4 263/2/4
f 261/2/4 262/2/4 263/2/4
f 262/2/4 258/2/4 264/2/4
f 263/2/4 262/2/4 264/2/4
f 265/1/4 266/1/4 267/1/4
f 267/1/4 266/1/4 268/1/4
f 269/1/4 270/1/4 271/1/4
f 271/1/4 270/1/4 272/1/4
f 273/1/4 274/1/4 275/1/4
f 275/1/4 274/1/4 276/1/4
f 277/1/4 278/1/4 279/1/4
f 279/1/4 278/1/4 280/1/4
f 281/2/4 282/2/4 283/2/4
f 283/2/4 282/2/4 284/2/4
f 285/1/4 286/1/4 287/1/4
f 287/1/4 286/1/4 288/1/4
f 289/2/4 290/2/4 291/2/4
f 291/2/4 290/2/4 292/2/4
f 293/1/4 294/1/4 295/1/4
f 295/1/4 294/1/4 296/1/4
f 297/1/4 298/1/4 299/1/4
f 299/1/4 298/1/4 300/1/4
f 301/2/4 302/2/4 303/2/4
f 303/2/4 302/2/4 304/2/4
f 305/1/4 306/1/4 307/1/4
f 307/1/4 306/1/4 308/1/4
f 311/2/4 312/2/4 313/2/4
f 313/2/4 312/2/4 314/2/4
f 309/1/4 310/1/4 315/1/4
f 315/1/4 310/1/4 316/1/4
f 317/2/4 318/2/4 319/2/4
f 319/2/4 318/2/4 320/2/4
f 323/2/5 322/2/5 321/2/5
f 324/2/5 322/2/5 323/2/5
f 327/2/5 326/2/5 325/2/5
f 328/2/5 326/2/5 327/2/5
f 331/2/5 330/2/5 329/2/5
f 332/2/5 330/2/5 331/2/5
f 335/2/5 334/2/5 333/2/5
f 336/2/5 334/2/5 335/2/5
f 339/2/5 338/2/5 337/2/5
f 340/2/5 338/2/5 339/2/5
f 343/2/5 342/2/5 341/2/5
f 344/2/5 342/2/5 343/2/5
f 347/2/5 346/2/5 345/2/5
f 348/2/5 346/2/5 347/2/5
f 351/2/5 350/2/5 349/2/5
f 352/2/5 350/2/5 351/2/5
f 355/2/5 354/2/5 353/2/5
f 356/2/5 354/2/5 355/2/5
f 359/2/5 358/2/5 357/2/5
f 360/2/5 358/2/5 359/2/5
f 363/2/5 362/2/5 361/2/5
f 364/2/5 362/2/5 363/2/5
f 368/1/5 366/1/5 365/1/5
f 369/1/5 366/1/5 368/1/5
f 372/1/5 368/1/5 367/1/5
f 372/1/5 370/1/5 369/1/5
f 372/1/5 369/1/5 368/1/5
f 373/1/5 370/1/5 372/1/5
f 374/1/5 370/1/5 373/1/5
f 375/1/5 370/1/5 374/1/5
f 377/1/5 372/1/5 371/1/5
f 377/1/5 373/1/5 372/1/5
f 378/3/5 374/3/5 373/3/5
f 378/1/5 373/1/5 377/1/5
f 379/1/5 376/1/5 375/1/5
f 379/3/5 374/3/5 378/3/5
f 379/1/5 375/1/5 374/1/5
f 380/1/5 376/1/5 379/1/5
f 382/1/5 377/1/5 371/1/5
f 383/1/5 377/1/5 382/1/5
f 384/3/5 378/3/5 377/3/5
f 384/1/5 377/1/5 383/1/5
f 384/3/5 379/3/5 378/3/5
f 384/3/5 380/3/5 379/3/5
f 385/1/5 376/1/5 380/1/5
f 385/3/5 380/3/5 384/3/5
f 386/1/5 376/1/5 385/1/5
f 387/1/5 376/1/5 386/1/5
f 390/1/5 383/1/5 382/1/5
f 390/1/5 382/1/5 381/1/5
f 391/1/5 383/1/5 390/1/5
f 392/3/5 384/3/5 383/3/5
f 392/1/5 383/1/5 391/1/5
f 392/3/5 385/3/5 384/3/5
f 392/3/5 386/3/5 385/3/5
f 393/3/5 386/3/5 392/3/5
f 394/3/5 386/3/5 393/3/5
f 395/1/5 388/1/5 387/1/5
f 395/3/5 386/3/5 394/3/5
f 395/1/5 387/1/5 386/1/5
f 396/1/5 388/1/5 395/1/5
f 397/1/5 388/1/5 396/1/5
f 399/3/5 393/3/5 392/3/5
f 399/3/5 392/3/5 391/3/5
f 400/3/5 396/3/5 395/3/5
f 400/3/5 395/3/5 394/3/5
f 401/1/5 391/1/5 390/1/5
f 401/1/5 390/1/5 389/1/5
f 402/1/5 391/1/5 401/1/5
f 403/3/5 400/3/5 399/3/5
f 403/1/5 391/1/5 402/1/5
f 403/3/5 399/3/5 391/3/5
f 404/3/5 400/3/5 403/3/5
f 405/3/5 396/3/5 400/3/5
f 405/3/5 400/3/5 404/3/5
f 406/1/5 398/1/5 397/1/5
f 406/3/5 396/3/5 405/3/5
f 406/1/5 397/1/5 396/1/5
f 407/1/5 398/1/5 406/1/5
f 408/1/5 398/1/5 407/1/5
f 409/1/5 403/1/5 402/1/5
f 409/1/5 404/1/5 403/1/5
f 410/1/5 404/1/5 409/1/5
f 411/3/5 405/3/5 404/3/5
f 411/1/5 404/1/5 410/1/5
f 412/3/5 405/3/5 411/3/5
f 413/3/5 405/3/5 412/3/5
f 414/1/5 407/1/5 406/1/5
f 414/3/5 405/3/5 413/3/5
f 414/1/5 406/1/5 405/1/5
f 415/1/5 407/1/5 414/1/5
f 416/1/5 407/1/5 415/1/5
f 417/3/5 413/3/5 412/3/5
f 417/1/5 412/1/5 411/1/5
f 417/1/5 411/1/5 410/1/5
f 418/3/5 413/3/5 417/3/5
f 419/3/5 413/3/5 418/3/5
f 420/1/5 415/1/5 414/1/5
f 420/3/5 413/3/5 419/3/5
f 420/1/5 414/1/5 413/1/5
f 421/1/5 418/1/5 417/1/5
f 421/1/5 417/1/5 410/1/5
f 422/1/5 418/1/5 421/1/5
f 423/3/5 419/3/5 418/3/5
f 423/1/5 418/1/5 422/1/5
f 424/1/5 420/1/5 419/1/5
f 424/3/5 419/3/5 423/3/5
f 425/1/5 415/1/5 420/1/5
f 425/1/5 420/1/5 424/1/5
f 426/1/5 415/1/5 425/1/5
f 427/1/5 424/1/5 423/1/5
f 427/1/5 425/1/5 424/1/5
f 427/1/5 423/1/5 422/1/5
f 428/1/5 425/1/5 427/1/5
f 429/1/5 425/1/5 428/1/5
f 430/1/5 425/1/5 429/1/5
f 431/1/5 429/1/5 428/1/5
f 432/1/5 429/1/5 431/1/5
f 433/2/6 434/2/6 435/2/6
f 435/2/6 434/2/6 436/2/6
f 437/2/6 438/2/6 439/2/6
f 439/2/6 438/2/6 440/2/6
f 441/2/6 442/2/6 443/2/6
f 443/2/6 442/2/6 444/2/6
f 445/2/6 446/2/6 447/2/6
f 447/2/6 446/2/6 448/2/6
f 449/2/6 450/2/6 451/2/6
f 451/2/6 450/2/6 452/2/6
f 453/2/6 454/2/6 455/2/6
f 455/2/6 454/2/6 456/2/6
f 457/2/6 458/2/6 459/2/6
f 459/2/6 458/2/6 460/2/6
f 461/2/6 462/2/6 463/2/6
f 463/2/6 462/2/6 464/2/6
f 465/2/6 466/2/6 467/2/6
f 467/2/6 466/2/6 468/2/6
f 469/2/6 470/2/6 471/2/6
f 471/2/6 470/2/6 472/2/6
f 473/1/6 474/1/6 476/1/6
f 476/1/6 474/1/6 477/1/6
f 475/1/6 476/1/6 480/1/6
f 477/1/6 478/1/6 480/1/6
f 476/1/6 477/1/6 480/1/6
f 480/1/6 478/1/6 481/1/6
f 481/1/6 478/1/6 482/1/6
f 482/1/6 478/1/6 483/1/6
f 479/1/6 480/1/6 485/1/6
f 480/1/6 481/1/6 485/1/6
f 481/3/6 482/3/6 486/3/6
f 485/1/6 481/1/6 486/1/6
f 483/1/6 484/1/6 487/1/6
f 486/3/6 482/3/6 487/3/6
f 482/1/6 483/1/6 487/1/6
f 487/1/6 484/1/6 488/1/6
f 479/1/6 485/1/6 490/1/6
f 490/1/6 485/1/6 491/1/6
f 485/3/6 486/3/6 492/3/6
f 491/1/6 485/1/6 492/1/6
f 486/3/6 487/3/6 492/3/6
f 487/3/6 488/3/6 492/3/6
f 488/1/6 484/1/6 493/1/6
f 492/3/6 488/3/6 493/3/6
f 493/1/6 484/1/6 494/1/6
f 494/1/6 484/1/6 495/1/6
f 490/1/6 491/1/6 498/1/6
f 489/1/6 490/1/6 498/1/6
f 498/1/6 491/1/6 499/1/6
f 491/3/6 492/3/6 500/3/6
f 499/1/6 491/1/6 500/1/6
f 492/3/6 493/3/6 500/3/6
f 493/3/6 494/3/6 500/3/6
f 495/1/6 496/1/6 501/1/6
f 500/3/6 494/3/6 501/3/6
f 494/1/6 495/1/6 501/1/6
f 501/1/6 496/1/6 502/1/6
f 502/1/6 496/1/6 503/1/6
f 498/1/6 499/1/6 505/1/6
f 497/1/6 498/1/6 505/1/6
f 505/1/6 499/1/6 506/1/6
f 499/3/6 500/3/6 507/3/6
f 506/1/6 499/1/6 507/1/6
f 500/3/6 501/3/6 507/3/6
f 501/3/6 502/3/6 507/3/6
f 507/3/6 502/3/6 508/3/6
f 508/3/6 502/3/6 509/3/6
f 503/1/6 504/1/6 510/1/6
f 509/3/6 502/3/6 510/3/6
f 502/1/6 503/1/6 510/1/6
f 510/1/6 504/1/6 511/1/6
f 511/1/6 504/1/6 512/1/6
f 507/1/6 508/1/6 513/1/6
f 506/1/6 507/1/6 513/1/6
f 513/1/6 508/1/6 514/1/6
f 508/3/6 509/3/6 515/3/6
f 514/1/6 508/1/6 515/1/6
f 515/3/6 509/3/6 516/3/6
f 516/3/6 509/3/6 517/3/6
f 510/1/6 511/1/6 518/1/6
f 517/3/6 509/3/6 518/3/6
f 509/1/6 510/1/6 518/1/6
f 518/1/6 511/1/6 519/1/6
f 519/1/6 511/1/6 520/1/6
f 516/3/6 517/3/6 521/3/6
f 515/1/6 516/1/6 521/1/6
f 514/1/6 515/1/6 521/1/6
f 521/3/6 517/3/6 522/3/6
f 522/3/6 517/3/6 523/3/6
f 518/1/6 519/1/6 524/1/6
f 523/3/6 517/3/6 524/3/6
f 517/1/6 518/1/6 524/1/6
f 521/1/6 522/1/6 525/1/6
f 514/1/6 521/1/6 525/1/6
f 525/1/6 522/1/6 526/1/6
f 522/3/6 523/3/6 527/3/6
f 526/1/6 522/1/6 527/1/6
f 523/1/6 524/1/6 528/1/6
f 527/3/6 523/3/6 528/3/6
f 524/1/6 519/1/6 529/1/6
f 528/1/6 524/1/6 529/1/6
f 529/1/6 519/1/6 530/1/6
f 527/1/6 528/1/6 531/1/6
f 528/1/6 529/1/6 531/1/6
f 526/1/6 527/1/6 531/1/6
f 531/1/6 529/1/6 532/1/6
f 532/1/6 529/1/6 533/1/6
f 533/1/6 529/1/6 534/1/6
f 532/1/6 533/1/6 535/1/6
f 535/1/6 533/1/6 536/1/6
