# MagicaVoxel @ Ephtracy

# material
mtllib mario 2.0-05.mtl
usemtl palette

# normals
vn -1 0 0
vn 1 0 0
vn 0 0 1
vn 0 0 -1
vn 0 -1 0
vn 0 1 0

# texcoords
vt 0.314453 0.5
vt 0.634766 0.5
vt 0.892578 0.5
vt 0.970703 0.5
vt 0.974609 0.5
vt 0.978516 0.5
vt 0.994141 0.5

# verts
v -7 4 4
v -7 4 -0
v -7 7 4
v -7 7 -0
v -6 7 4
v -6 7 -0
v -6 9 4
v -6 9 -0
v -6 12 4
v -6 12 -0
v -6 13 4
v -6 13 -0
v -5 1 4
v -5 1 -0
v -5 2 4
v -5 2 -0
v -5 3 4
v -5 3 -0
v -5 4 4
v -5 4 -0
v -5 9 4
v -5 9 -0
v -5 10 4
v -5 10 -0
v -5 11 4
v -5 11 -0
v -5 12 4
v -5 12 -0
v -5 13 4
v -5 13 -0
v -5 14 4
v -5 14 -0
v -5 15 4
v -5 15 -0
v -5 16 4
v -5 16 -0
v -4 2 4
v -4 2 -0
v -4 3 4
v -4 3 -0
v -4 4 4
v -4 4 3
v -4 4 1
v -4 4 -0
v -4 5 4
v -4 5 3
v -4 5 1
v -4 5 -0
v -4 10 4
v -4 10 -0
v -4 11 4
v -4 11 -0
v -3 5 4
v -3 5 3
v -3 5 1
v -3 5 -0
v -3 6 4
v -3 6 3
v -3 6 1
v -3 6 -0
v -3 14 4
v -3 14 -0
v -3 15 4
v -3 15 -0
v -2 16 4
v -2 16 -0
v -2 17 4
v -2 17 -0
v 0 1 4
v 0 1 -0
v 0 2 4
v 0 2 -0
v 0 3 4
v 0 3 -0
v 0 4 4
v 0 4 3
v 0 4 1
v 0 4 -0
v 1 2 4
v 1 2 -0
v 1 3 4
v 1 3 -0
v 5 4 4
v 5 4 -0
v 5 5 4
v 5 5 -0
v -5 4 4
v -5 4 -0
v -5 5 4
v -5 5 -0
v -4 5 4
v -4 5 3
v -4 5 1
v -4 5 -0
v -4 6 4
v -4 6 3
v -4 6 1
v -4 6 -0
v -1 1 4
v -1 1 -0
v -1 3 4
v -1 3 3
v -1 3 1
v -1 3 -0
v -1 4 4
v -1 4 3
v -1 4 1
v -1 4 -0
v 3 10 4
v 3 10 -0
v 3 11 4
v 3 11 -0
v 3 16 4
v 3 16 -0
v 3 17 4
v 3 17 -0
v 4 1 4
v 4 1 -0
v 4 3 4
v 4 3 -0
v 4 4 3
v 4 4 1
v 4 5 4
v 4 5 3
v 4 5 1
v 4 5 -0
v 4 14 4
v 4 14 -0
v 4 15 4
v 4 15 -0
v 4 16 4
v 4 16 -0
v 5 9 4
v 5 9 -0
v 5 10 4
v 5 10 -0
v 5 11 4
v 5 11 -0
v 5 14 4
v 5 14 -0
v 6 7 4
v 6 7 -0
v 6 9 4
v 6 9 -0
v 7 4 4
v 7 4 -0
v 7 6 4
v 7 6 -0
v 7 7 4
v 7 7 -0
v -7 4 4
v -7 7 4
v -6 7 4
v -6 9 4
v -6 12 4
v -6 13 4
v -5 1 4
v -5 2 4
v -5 3 4
v -5 4 4
v -5 5 4
v -5 9 4
v -5 10 4
v -5 11 4
v -5 12 4
v -5 13 4
v -5 14 4
v -5 15 4
v -5 16 4
v -4 2 4
v -4 3 4
v -4 4 4
v -4 5 4
v -4 6 4
v -4 7 4
v -4 10 4
v -4 11 4
v -3 5 4
v -3 6 4
v -3 7 4
v -3 12 4
v -3 13 4
v -3 14 4
v -3 15 4
v -2 5 4
v -2 6 4
v -2 7 4
v -2 9 4
v -2 12 4
v -2 13 4
v -2 15 4
v -2 16 4
v -2 17 4
v -1 1 4
v -1 3 4
v -1 4 4
v -1 5 4
v -1 6 4
v -1 7 4
v -1 9 4
v -1 11 4
v -1 12 4
v -1 13 4
v -1 15 4
v 0 1 4
v 0 2 4
v 0 3 4
v 0 4 4
v 0 5 4
v 0 6 4
v 1 2 4
v 1 3 4
v 1 5 4
v 1 6 4
v 1 7 4
v 1 10 4
v 1 12 4
v 1 13 4
v 1 14 4
v 1 15 4
v 2 4 4
v 2 10 4
v 2 13 4
v 2 14 4
v 3 4 4
v 3 5 4
v 3 7 4
v 3 10 4
v 3 11 4
v 3 12 4
v 3 14 4
v 3 16 4
v 3 17 4
v 4 1 4
v 4 3 4
v 4 5 4
v 4 12 4
v 4 14 4
v 4 15 4
v 4 16 4
v 5 4 4
v 5 5 4
v 5 9 4
v 5 10 4
v 5 11 4
v 5 14 4
v 6 6 4
v 6 7 4
v 6 9 4
v 7 4 4
v 7 6 4
v 7 7 4
v -7 4 -0
v -7 7 -0
v -6 7 -0
v -6 9 -0
v -6 12 -0
v -6 13 -0
v -5 1 -0
v -5 2 -0
v -5 3 -0
v -5 4 -0
v -5 5 -0
v -5 9 -0
v -5 10 -0
v -5 11 -0
v -5 12 -0
v -5 13 -0
v -5 14 -0
v -5 15 -0
v -5 16 -0
v -4 2 -0
v -4 3 -0
v -4 4 -0
v -4 5 -0
v -4 6 -0
v -4 7 -0
v -4 10 -0
v -4 11 -0
v -3 5 -0
v -3 6 -0
v -3 7 -0
v -3 12 -0
v -3 13 -0
v -3 14 -0
v -3 15 -0
v -2 5 -0
v -2 6 -0
v -2 7 -0
v -2 9 -0
v -2 12 -0
v -2 13 -0
v -2 15 -0
v -2 16 -0
v -2 17 -0
v -1 1 -0
v -1 3 -0
v -1 4 -0
v -1 5 -0
v -1 6 -0
v -1 7 -0
v -1 9 -0
v -1 11 -0
v -1 12 -0
v -1 13 -0
v -1 15 -0
v 0 1 -0
v 0 2 -0
v 0 3 -0
v 0 4 -0
v 0 5 -0
v 0 6 -0
v 1 2 -0
v 1 3 -0
v 1 5 -0
v 1 6 -0
v 1 7 -0
v 1 10 -0
v 1 12 -0
v 1 13 -0
v 1 14 -0
v 1 15 -0
v 2 4 -0
v 2 10 -0
v 2 13 -0
v 2 14 -0
v 3 4 -0
v 3 5 -0
v 3 7 -0
v 3 10 -0
v 3 11 -0
v 3 12 -0
v 3 14 -0
v 3 16 -0
v 3 17 -0
v 4 1 -0
v 4 3 -0
v 4 5 -0
v 4 12 -0
v 4 14 -0
v 4 15 -0
v 4 16 -0
v 5 4 -0
v 5 5 -0
v 5 9 -0
v 5 10 -0
v 5 11 -0
v 5 14 -0
v 6 6 -0
v 6 7 -0
v 6 9 -0
v 7 4 -0
v 7 6 -0
v 7 7 -0
v -5 1 4
v -1 1 4
v 0 1 4
v 4 1 4
v -4 1 3
v -2 1 3
v 1 1 3
v 3 1 3
v -4 1 1
v -2 1 1
v 1 1 1
v 3 1 1
v -5 1 -0
v -1 1 -0
v 0 1 -0
v 4 1 -0
v -5 3 4
v -4 3 4
v 0 3 4
v 1 3 4
v -5 3 -0
v -4 3 -0
v 0 3 -0
v 1 3 -0
v -7 4 4
v -5 4 4
v -1 4 4
v 0 4 4
v 5 4 4
v 7 4 4
v -1 4 3
v 0 4 3
v -1 4 1
v 0 4 1
v -7 4 -0
v -5 4 -0
v -1 4 -0
v 0 4 -0
v 5 4 -0
v 7 4 -0
v -5 5 4
v -4 5 4
v 4 5 4
v 5 5 4
v -4 5 3
v 4 5 3
v -4 5 1
v 4 5 1
v -5 5 -0
v -4 5 -0
v 4 5 -0
v 5 5 -0
v -4 6 4
v -3 6 4
v -4 6 3
v -3 6 3
v -4 6 1
v -3 6 1
v -4 6 -0
v -3 6 -0
v -5 11 4
v -4 11 4
v 3 11 4
v 5 11 4
v -5 11 -0
v -4 11 -0
v 3 11 -0
v 5 11 -0
v -6 12 4
v -5 12 4
v -6 12 -0
v -5 12 -0
v -5 15 4
v -3 15 4
v -5 15 -0
v -3 15 -0
v -5 2 4
v -4 2 4
v 0 2 4
v 1 2 4
v -5 2 -0
v -4 2 -0
v 0 2 -0
v 1 2 -0
v -5 4 4
v -4 4 4
v -4 4 3
v -4 4 1
v -5 4 -0
v -4 4 -0
v -4 5 4
v -3 5 4
v -4 5 3
v -3 5 3
v -4 5 1
v -3 5 1
v -4 5 -0
v -3 5 -0
v -7 7 4
v -6 7 4
v 6 7 4
v 7 7 4
v -7 7 -0
v -6 7 -0
v 6 7 -0
v 7 7 -0
v -6 9 4
v -5 9 4
v 5 9 4
v 6 9 4
v -6 9 -0
v -5 9 -0
v 5 9 -0
v 6 9 -0
v -5 10 4
v -4 10 4
v 3 10 4
v 5 10 4
v -5 10 -0
v -4 10 -0
v 3 10 -0
v 5 10 -0
v -6 13 4
v -5 13 4
v -6 13 -0
v -5 13 -0
v -5 14 4
v -3 14 4
v 4 14 4
v 5 14 4
v -5 14 -0
v -3 14 -0
v 4 14 -0
v 5 14 -0
v -5 16 4
v -2 16 4
v 3 16 4
v 4 16 4
v -5 16 -0
v -2 16 -0
v 3 16 -0
v 4 16 -0
v -2 17 4
v 3 17 4
v -2 17 -0
v 3 17 -0

# faces
f 3/2/1 2/2/1 1/2/1
f 4/2/1 2/2/1 3/2/1
f 7/1/1 6/1/1 5/1/1
f 8/1/1 6/1/1 7/1/1
f 11/2/1 10/2/1 9/2/1
f 12/2/1 10/2/1 11/2/1
f 15/1/1 14/1/1 13/1/1
f 16/1/1 14/1/1 15/1/1
f 19/3/1 18/3/1 17/3/1
f 20/3/1 18/3/1 19/3/1
f 23/1/1 22/1/1 21/1/1
f 24/1/1 22/1/1 23/1/1
f 27/7/1 26/7/1 25/7/1
f 28/7/1 26/7/1 27/7/1
f 31/2/1 30/2/1 29/2/1
f 32/2/1 30/2/1 31/2/1
f 35/3/1 34/3/1 33/3/1
f 36/3/1 34/3/1 35/3/1
f 39/1/1 38/1/1 37/1/1
f 40/1/1 38/1/1 39/1/1
f 45/3/1 42/3/1 41/3/1
f 46/5/1 43/5/1 42/5/1
f 46/3/1 42/3/1 45/3/1
f 47/3/1 44/3/1 43/3/1
f 47/5/1 43/5/1 46/5/1
f 48/3/1 44/3/1 47/3/1
f 51/2/1 50/2/1 49/2/1
f 52/2/1 50/2/1 51/2/1
f 57/3/1 54/3/1 53/3/1
f 58/5/1 55/5/1 54/5/1
f 58/3/1 54/3/1 57/3/1
f 59/3/1 56/3/1 55/3/1
f 59/5/1 55/5/1 58/5/1
f 60/3/1 56/3/1 59/3/1
f 63/2/1 62/2/1 61/2/1
f 64/2/1 62/2/1 63/2/1
f 67/3/1 66/3/1 65/3/1
f 68/3/1 66/3/1 67/3/1
f 71/1/1 70/1/1 69/1/1
f 72/1/1 70/1/1 71/1/1
f 75/3/1 74/3/1 73/3/1
f 76/3/1 74/3/1 75/3/1
f 77/3/1 74/3/1 76/3/1
f 78/3/1 74/3/1 77/3/1
f 81/1/1 80/1/1 79/1/1
f 82/1/1 80/1/1 81/1/1
f 85/2/1 84/2/1 83/2/1
f 86/2/1 84/2/1 85/2/1
f 87/2/2 88/2/2 89/2/2
f 89/2/2 88/2/2 90/2/2
f 91/2/2 92/2/2 95/2/2
f 93/2/2 94/2/2 95/2/2
f 92/2/2 93/2/2 95/2/2
f 95/2/2 94/2/2 96/2/2
f 96/2/2 94/2/2 97/2/2
f 97/2/2 94/2/2 98/2/2
f 99/1/2 100/1/2 101/1/2
f 101/1/2 100/1/2 102/1/2
f 102/1/2 100/1/2 103/1/2
f 103/1/2 100/1/2 104/1/2
f 101/3/2 102/3/2 105/3/2
f 102/5/2 103/5/2 106/5/2
f 105/3/2 102/3/2 106/3/2
f 103/3/2 104/3/2 107/3/2
f 106/5/2 103/5/2 107/5/2
f 107/3/2 104/3/2 108/3/2
f 109/2/2 110/2/2 111/2/2
f 111/2/2 110/2/2 112/2/2
f 113/3/2 114/3/2 115/3/2
f 115/3/2 114/3/2 116/3/2
f 117/1/2 118/1/2 119/1/2
f 119/1/2 118/1/2 120/1/2
f 119/3/2 120/3/2 121/3/2
f 121/3/2 120/3/2 122/3/2
f 119/3/2 121/3/2 123/3/2
f 121/5/2 122/5/2 124/5/2
f 123/3/2 121/3/2 124/3/2
f 122/3/2 120/3/2 125/3/2
f 124/5/2 122/5/2 125/5/2
f 125/3/2 120/3/2 126/3/2
f 127/7/2 128/7/2 129/7/2
f 129/7/2 128/7/2 130/7/2
f 129/3/2 130/3/2 131/3/2
f 131/3/2 130/3/2 132/3/2
f 133/1/2 134/1/2 135/1/2
f 135/1/2 134/1/2 136/1/2
f 137/7/2 138/7/2 139/7/2
f 139/7/2 138/7/2 140/7/2
f 141/1/2 142/1/2 143/1/2
f 143/1/2 142/1/2 144/1/2
f 145/2/2 146/2/2 147/2/2
f 147/2/2 146/2/2 148/2/2
f 147/1/2 148/1/2 149/1/2
f 149/1/2 148/1/2 150/1/2
f 153/2/3 152/2/3 151/2/3
f 160/2/3 153/2/3 151/2/3
f 161/2/3 153/2/3 160/2/3
f 162/1/3 154/1/3 153/1/3
f 165/2/3 156/2/3 155/2/3
f 166/2/3 156/2/3 165/2/3
f 170/1/3 158/1/3 157/1/3
f 171/3/3 160/3/3 159/3/3
f 172/3/3 160/3/3 171/3/3
f 173/2/3 153/2/3 161/2/3
f 174/2/3 153/2/3 173/2/3
f 175/1/3 163/1/3 162/1/3
f 175/2/3 153/2/3 174/2/3
f 175/1/3 162/1/3 153/1/3
f 176/1/3 163/1/3 175/1/3
f 177/7/3 165/7/3 164/7/3
f 178/3/3 172/3/3 171/3/3
f 178/3/3 173/3/3 172/3/3
f 179/1/3 176/1/3 175/1/3
f 179/1/3 175/1/3 174/1/3
f 180/1/3 176/1/3 179/1/3
f 181/7/3 165/7/3 177/7/3
f 181/2/3 167/2/3 166/2/3
f 181/2/3 166/2/3 165/2/3
f 182/2/3 167/2/3 181/2/3
f 183/2/3 167/2/3 182/2/3
f 184/3/3 169/3/3 168/3/3
f 185/3/3 180/3/3 179/3/3
f 185/3/3 178/3/3 171/3/3
f 185/3/3 179/3/3 178/3/3
f 186/3/3 180/3/3 185/3/3
f 187/1/3 176/1/3 180/1/3
f 187/3/3 180/3/3 186/3/3
f 188/1/3 176/1/3 187/1/3
f 189/7/3 181/7/3 177/7/3
f 189/7/3 182/7/3 181/7/3
f 190/2/3 183/2/3 182/2/3
f 190/7/3 182/7/3 189/7/3
f 190/2/3 184/2/3 183/2/3
f 191/3/3 169/3/3 184/3/3
f 191/2/3 184/2/3 190/2/3
f 192/3/3 169/3/3 191/3/3
f 194/1/3 170/1/3 157/1/3
f 194/1/3 171/1/3 170/1/3
f 195/3/3 185/3/3 171/3/3
f 195/1/3 171/1/3 194/1/3
f 196/3/3 185/3/3 195/3/3
f 197/6/3 186/6/3 185/6/3
f 197/3/3 185/3/3 196/3/3
f 198/3/3 187/3/3 186/3/3
f 198/6/3 186/6/3 197/6/3
f 198/3/3 188/3/3 187/3/3
f 199/3/3 188/3/3 198/3/3
f 200/1/3 176/1/3 188/1/3
f 200/3/3 188/3/3 199/3/3
f 201/7/3 189/7/3 177/7/3
f 201/2/3 177/2/3 176/2/3
f 202/2/3 190/2/3 189/2/3
f 202/7/3 189/7/3 201/7/3
f 203/7/3 191/7/3 190/7/3
f 203/2/3 190/2/3 202/2/3
f 204/3/3 193/3/3 192/3/3
f 204/7/3 191/7/3 203/7/3
f 204/3/3 192/3/3 191/3/3
f 208/3/3 197/3/3 196/3/3
f 208/3/3 198/3/3 197/3/3
f 208/3/3 199/3/3 198/3/3
f 209/3/3 199/3/3 208/3/3
f 210/3/3 199/3/3 209/3/3
f 211/1/3 206/1/3 205/1/3
f 212/3/3 208/3/3 207/3/3
f 212/3/3 209/3/3 208/3/3
f 213/6/3 210/6/3 209/6/3
f 213/3/3 209/3/3 212/3/3
f 214/3/3 199/3/3 210/3/3
f 214/6/3 210/6/3 213/6/3
f 215/1/3 200/1/3 199/1/3
f 215/3/3 199/3/3 214/3/3
f 216/1/3 176/1/3 200/1/3
f 216/1/3 200/1/3 215/1/3
f 216/2/3 203/2/3 202/2/3
f 216/2/3 201/2/3 176/2/3
f 216/2/3 202/2/3 201/2/3
f 216/2/3 204/2/3 203/2/3
f 217/2/3 204/2/3 216/2/3
f 218/2/3 204/2/3 217/2/3
f 219/2/3 204/2/3 218/2/3
f 220/3/3 193/3/3 204/3/3
f 220/2/3 204/2/3 219/2/3
f 221/3/3 215/3/3 214/3/3
f 221/3/3 214/3/3 213/3/3
f 221/3/3 213/3/3 212/3/3
f 221/3/3 216/3/3 215/3/3
f 222/2/3 217/2/3 216/2/3
f 222/3/3 216/3/3 221/3/3
f 223/2/3 219/2/3 218/2/3
f 223/7/3 218/7/3 217/7/3
f 224/7/3 220/7/3 219/7/3
f 224/2/3 219/2/3 223/2/3
f 225/1/3 222/1/3 221/1/3
f 225/3/3 221/3/3 212/3/3
f 226/1/3 222/1/3 225/1/3
f 227/1/3 222/1/3 226/1/3
f 228/2/3 217/2/3 222/2/3
f 228/1/3 222/1/3 227/1/3
f 229/2/3 217/2/3 228/2/3
f 230/7/3 223/7/3 217/7/3
f 230/2/3 217/2/3 229/2/3
f 230/7/3 224/7/3 223/7/3
f 231/7/3 220/7/3 224/7/3
f 231/7/3 224/7/3 230/7/3
f 232/3/3 193/3/3 220/3/3
f 233/3/3 193/3/3 232/3/3
f 234/1/3 212/1/3 211/1/3
f 234/1/3 211/1/3 205/1/3
f 235/3/3 225/3/3 212/3/3
f 235/1/3 212/1/3 234/1/3
f 235/3/3 226/3/3 225/3/3
f 236/2/3 227/2/3 226/2/3
f 236/3/3 226/3/3 235/3/3
f 237/7/3 230/7/3 229/7/3
f 237/2/3 231/2/3 230/2/3
f 238/7/3 220/7/3 231/7/3
f 238/2/3 231/2/3 237/2/3
f 239/3/3 232/3/3 220/3/3
f 239/7/3 220/7/3 238/7/3
f 240/3/3 232/3/3 239/3/3
f 242/2/3 227/2/3 236/2/3
f 243/1/3 228/1/3 227/1/3
f 244/1/3 228/1/3 243/1/3
f 245/7/3 237/7/3 229/7/3
f 245/7/3 238/7/3 237/7/3
f 246/7/3 238/7/3 245/7/3
f 247/2/3 242/2/3 241/2/3
f 247/2/3 227/2/3 242/2/3
f 248/1/3 243/1/3 227/1/3
f 248/2/3 227/2/3 247/2/3
f 249/1/3 243/1/3 248/1/3
f 250/2/3 247/2/3 241/2/3
f 251/1/3 248/1/3 247/1/3
f 251/2/3 247/2/3 250/2/3
f 252/1/3 248/1/3 251/1/3
f 253/2/4 254/2/4 255/2/4
f 253/2/4 255/2/4 262/2/4
f 262/2/4 255/2/4 263/2/4
f 255/1/4 256/1/4 264/1/4
f 257/2/4 258/2/4 267/2/4
f 267/2/4 258/2/4 268/2/4
f 259/1/4 260/1/4 272/1/4
f 261/3/4 262/3/4 273/3/4
f 273/3/4 262/3/4 274/3/4
f 263/2/4 255/2/4 275/2/4
f 275/2/4 255/2/4 276/2/4
f 264/1/4 265/1/4 277/1/4
f 276/2/4 255/2/4 277/2/4
f 255/1/4 264/1/4 277/1/4
f 277/1/4 265/1/4 278/1/4
f 266/7/4 267/7/4 279/7/4
f 273/3/4 274/3/4 280/3/4
f 274/3/4 275/3/4 280/3/4
f 277/1/4 278/1/4 281/1/4
f 276/1/4 277/1/4 281/1/4
f 281/1/4 278/1/4 282/1/4
f 279/7/4 267/7/4 283/7/4
f 268/2/4 269/2/4 283/2/4
f 267/2/4 268/2/4 283/2/4
f 283/2/4 269/2/4 284/2/4
f 284/2/4 269/2/4 285/2/4
f 270/3/4 271/3/4 286/3/4
f 281/3/4 282/3/4 287/3/4
f 273/3/4 280/3/4 287/3/4
f 280/3/4 281/3/4 287/3/4
f 287/3/4 282/3/4 288/3/4
f 282/1/4 278/1/4 289/1/4
f 288/3/4 282/3/4 289/3/4
f 289/1/4 278/1/4 290/1/4
f 279/7/4 283/7/4 291/7/4
f 283/7/4 284/7/4 291/7/4
f 284/2/4 285/2/4 292/2/4
f 291/7/4 284/7/4 292/7/4
f 285/2/4 286/2/4 292/2/4
f 286/3/4 271/3/4 293/3/4
f 292/2/4 286/2/4 293/2/4
f 293/3/4 271/3/4 294/3/4
f 259/1/4 272/1/4 296/1/4
f 272/1/4 273/1/4 296/1/4
f 273/3/4 287/3/4 297/3/4
f 296/1/4 273/1/4 297/1/4
f 297/3/4 287/3/4 298/3/4
f 287/6/4 288/6/4 299/6/4
f 298/3/4 287/3/4 299/3/4
f 288/3/4 289/3/4 300/3/4
f 299/6/4 288/6/4 300/6/4
f 289/3/4 290/3/4 300/3/4
f 300/3/4 290/3/4 301/3/4
f 290/1/4 278/1/4 302/1/4
f 301/3/4 290/3/4 302/3/4
f 279/7/4 291/7/4 303/7/4
f 278/2/4 279/2/4 303/2/4
f 291/2/4 292/2/4 304/2/4
f 303/7/4 291/7/4 304/7/4
f 292/7/4 293/7/4 305/7/4
f 304/2/4 292/2/4 305/2/4
f 294/3/4 295/3/4 306/3/4
f 305/7/4 293/7/4 306/7/4
f 293/3/4 294/3/4 306/3/4
f 298/3/4 299/3/4 310/3/4
f 299/3/4 300/3/4 310/3/4
f 300/3/4 301/3/4 310/3/4
f 310/3/4 301/3/4 311/3/4
f 311/3/4 301/3/4 312/3/4
f 307/1/4 308/1/4 313/1/4
f 309/3/4 310/3/4 314/3/4
f 310/3/4 311/3/4 314/3/4
f 311/6/4 312/6/4 315/6/4
f 314/3/4 311/3/4 315/3/4
f 312/3/4 301/3/4 316/3/4
f 315/6/4 312/6/4 316/6/4
f 301/1/4 302/1/4 317/1/4
f 316/3/4 301/3/4 317/3/4
f 302/1/4 278/1/4 318/1/4
f 317/1/4 302/1/4 318/1/4
f 304/2/4 305/2/4 318/2/4
f 278/2/4 303/2/4 318/2/4
f 303/2/4 304/2/4 318/2/4
f 305/2/4 306/2/4 318/2/4
f 318/2/4 306/2/4 319/2/4
f 319/2/4 306/2/4 320/2/4
f 320/2/4 306/2/4 321/2/4
f 306/3/4 295/3/4 322/3/4
f 321/2/4 306/2/4 322/2/4
f 316/3/4 317/3/4 323/3/4
f 315/3/4 316/3/4 323/3/4
f 314/3/4 315/3/4 323/3/4
f 317/3/4 318/3/4 323/3/4
f 318/2/4 319/2/4 324/2/4
f 323/3/4 318/3/4 324/3/4
f 320/2/4 321/2/4 325/2/4
f 319/7/4 320/7/4 325/7/4
f 321/7/4 322/7/4 326/7/4
f 325/2/4 321/2/4 326/2/4
f 323/1/4 324/1/4 327/1/4
f 314/3/4 323/3/4 327/3/4
f 327/1/4 324/1/4 328/1/4
f 328/1/4 324/1/4 329/1/4
f 324/2/4 319/2/4 330/2/4
f 329/1/4 324/1/4 330/1/4
f 330/2/4 319/2/4 331/2/4
f 319/7/4 325/7/4 332/7/4
f 331/2/4 319/2/4 332/2/4
f 325/7/4 326/7/4 332/7/4
f 326/7/4 322/7/4 333/7/4
f 332/7/4 326/7/4 333/7/4
f 322/3/4 295/3/4 334/3/4
f 334/3/4 295/3/4 335/3/4
f 313/1/4 314/1/4 336/1/4
f 307/1/4 313/1/4 336/1/4
f 314/3/4 327/3/4 337/3/4
f 336/1/4 314/1/4 337/1/4
f 327/3/4 328/3/4 337/3/4
f 328/2/4 329/2/4 338/2/4
f 337/3/4 328/3/4 338/3/4
f 331/7/4 332/7/4 339/7/4
f 332/2/4 333/2/4 339/2/4
f 333/7/4 322/7/4 340/7/4
f 339/2/4 333/2/4 340/2/4
f 322/3/4 334/3/4 341/3/4
f 340/7/4 322/7/4 341/7/4
f 341/3/4 334/3/4 342/3/4
f 338/2/4 329/2/4 344/2/4
f 329/1/4 330/1/4 345/1/4
f 345/1/4 330/1/4 346/1/4
f 331/7/4 339/7/4 347/7/4
f 339/7/4 340/7/4 347/7/4
f 347/7/4 340/7/4 348/7/4
f 343/2/4 344/2/4 349/2/4
f 344/2/4 329/2/4 349/2/4
f 329/1/4 345/1/4 350/1/4
f 349/2/4 329/2/4 350/2/4
f 350/1/4 345/1/4 351/1/4
f 343/2/4 349/2/4 352/2/4
f 349/1/4 350/1/4 353/1/4
f 352/2/4 349/2/4 353/2/4
f 353/1/4 350/1/4 354/1/4
f 359/1/5 356/1/5 355/1/5
f 360/1/5 356/1/5 359/1/5
f 361/1/5 358/1/5 357/1/5
f 362/1/5 358/1/5 361/1/5
f 363/1/5 359/1/5 355/1/5
f 363/5/5 360/5/5 359/5/5
f 364/1/5 356/1/5 360/1/5
f 364/5/5 360/5/5 363/5/5
f 365/5/5 362/5/5 361/5/5
f 365/1/5 361/1/5 357/1/5
f 366/1/5 358/1/5 362/1/5
f 366/5/5 362/5/5 365/5/5
f 367/1/5 363/1/5 355/1/5
f 367/1/5 364/1/5 363/1/5
f 368/1/5 356/1/5 364/1/5
f 368/1/5 364/1/5 367/1/5
f 369/1/5 365/1/5 357/1/5
f 369/1/5 366/1/5 365/1/5
f 370/1/5 358/1/5 366/1/5
f 370/1/5 366/1/5 369/1/5
f 375/3/5 372/3/5 371/3/5
f 376/3/5 372/3/5 375/3/5
f 377/3/5 374/3/5 373/3/5
f 378/3/5 374/3/5 377/3/5
f 385/3/5 382/3/5 381/3/5
f 386/3/5 382/3/5 385/3/5
f 387/5/5 386/5/5 385/5/5
f 388/5/5 386/5/5 387/5/5
f 389/2/5 380/2/5 379/2/5
f 390/2/5 380/2/5 389/2/5
f 391/3/5 388/3/5 387/3/5
f 392/3/5 388/3/5 391/3/5
f 393/2/5 384/2/5 383/2/5
f 394/2/5 384/2/5 393/2/5
f 399/2/5 396/2/5 395/2/5
f 400/2/5 398/2/5 397/2/5
f 401/2/5 399/2/5 395/2/5
f 402/2/5 398/2/5 400/2/5
f 403/2/5 401/2/5 395/2/5
f 404/2/5 401/2/5 403/2/5
f 405/2/5 398/2/5 402/2/5
f 406/2/5 398/2/5 405/2/5
f 409/1/5 408/1/5 407/1/5
f 410/1/5 408/1/5 409/1/5
f 411/4/5 410/4/5 409/4/5
f 412/4/5 410/4/5 411/4/5
f 413/1/5 412/1/5 411/1/5
f 414/1/5 412/1/5 413/1/5
f 419/7/5 416/7/5 415/7/5
f 420/7/5 416/7/5 419/7/5
f 421/7/5 418/7/5 417/7/5
f 422/7/5 418/7/5 421/7/5
f 425/2/5 424/2/5 423/2/5
f 426/2/5 424/2/5 425/2/5
f 429/3/5 428/3/5 427/3/5
f 430/3/5 428/3/5 429/3/5
f 431/1/6 432/1/6 435/1/6
f 435/1/6 432/1/6 436/1/6
f 433/1/6 434/1/6 437/1/6
f 437/1/6 434/1/6 438/1/6
f 439/3/6 440/3/6 441/3/6
f 439/3/6 441/3/6 442/3/6
f 439/3/6 442/3/6 443/3/6
f 443/3/6 442/3/6 444/3/6
f 445/3/6 446/3/6 447/3/6
f 447/3/6 446/3/6 448/3/6
f 447/5/6 448/5/6 449/5/6
f 449/5/6 448/5/6 450/5/6
f 449/3/6 450/3/6 451/3/6
f 451/3/6 450/3/6 452/3/6
f 453/2/6 454/2/6 457/2/6
f 457/2/6 454/2/6 458/2/6
f 455/1/6 456/1/6 459/1/6
f 459/1/6 456/1/6 460/1/6
f 461/1/6 462/1/6 465/1/6
f 465/1/6 462/1/6 466/1/6
f 463/1/6 464/1/6 467/1/6
f 467/1/6 464/1/6 468/1/6
f 469/1/6 470/1/6 473/1/6
f 473/1/6 470/1/6 474/1/6
f 471/1/6 472/1/6 475/1/6
f 475/1/6 472/1/6 476/1/6
f 477/2/6 478/2/6 479/2/6
f 479/2/6 478/2/6 480/2/6
f 481/2/6 482/2/6 485/2/6
f 485/2/6 482/2/6 486/2/6
f 483/7/6 484/7/6 487/7/6
f 487/7/6 484/7/6 488/7/6
f 489/3/6 490/3/6 493/3/6
f 493/3/6 490/3/6 494/3/6
f 491/3/6 492/3/6 495/3/6
f 495/3/6 492/3/6 496/3/6
f 497/3/6 498/3/6 499/3/6
f 499/3/6 498/3/6 500/3/6
